<svg xmlns="http://www.w3.org/2000/svg" width="512" height="512" viewBox="0 0 512 512" version="1.1"><path d="M 99.241 118.325 C 93.825 121.333, 91.915 129.169, 95.329 134.379 C 96.311 135.878, 100.801 139.784, 105.307 143.058 C 127.020 158.838, 130.799 161.835, 139.722 170.356 C 162.457 192.064, 179.984 217.955, 193.572 249.906 C 217.534 306.249, 229.527 370.429, 231.672 453.803 C 232.409 482.446, 232.810 484.187, 239.416 487.412 C 242.973 489.148, 243.705 489.194, 247.384 487.912 C 254.808 485.324, 255.581 483.001, 256.375 460.881 C 259.014 387.358, 273.899 331.347, 304.383 280.221 C 327.060 242.188, 358.891 212.621, 400.769 190.691 C 412.827 184.376, 414.727 183.036, 416.362 179.688 C 418.034 176.266, 418.081 175.500, 416.827 172.204 C 415.157 167.816, 409.922 164, 405.574 164 C 398.054 164, 365.493 183.046, 345.456 199.164 C 329.489 212.009, 312.787 228.742, 300.704 244 C 297.437 248.125, 293.580 252.983, 292.132 254.795 C 276.991 273.749, 256.701 316.330, 249.911 343.402 C 248.715 348.169, 247.571 351.905, 247.369 351.703 C 247.167 351.500, 245.852 345.072, 244.446 337.418 C 238.555 305.335, 227.857 268.684, 217.051 243.564 C 211.418 230.468, 198.535 206.749, 190.675 195 C 172.432 167.734, 154.169 149.566, 121.611 126.297 C 107.883 116.486, 104.637 115.329, 99.241 118.325" stroke="none" fill="#3b8c3c" fill-rule="evenodd"/><path d="M 8.327 23.696 C 5.463 24.253, 1.121 28.669, 0.328 31.829 C -0.704 35.941, 0.805 84.264, 2.488 101 C 10.442 180.102, 34.248 227.629, 75.378 246.519 C 92.031 254.168, 106.021 257.013, 126.822 256.980 C 150.249 256.944, 166.524 253.214, 184.753 243.704 L 190.007 240.963 186.534 234.067 C 174.611 210.392, 158.059 187.865, 139.722 170.356 C 130.799 161.835, 127.020 158.838, 105.307 143.058 C 96.102 136.369, 93.600 133.242, 93.600 128.428 C 93.600 121.683, 98.374 117, 105.252 117 C 111.428 117, 147.352 144.219, 163.500 161.134 C 179.093 177.467, 192.031 195.349, 203 215.726 C 206.025 221.345, 208.772 225.956, 209.105 225.972 C 210.349 226.030, 218.253 213.732, 221.463 206.745 C 229.453 189.350, 233.002 171.913, 232.997 150.074 C 232.989 115.727, 223.648 90.498, 203.862 71.390 C 179.177 47.550, 137.671 32.317, 81.500 26.483 C 55.248 23.756, 15.742 22.251, 8.327 23.696 M 460.500 70.010 C 367.598 75.233, 311.640 98.734, 290.276 141.500 C 277.794 166.488, 275.089 204.059, 283.618 234 C 285.830 241.765, 291.015 255.009, 291.823 254.955 C 292.195 254.931, 295.089 251.441, 298.252 247.201 C 309.428 232.223, 328.546 212.767, 345.456 199.164 C 365.493 183.046, 398.054 164, 405.574 164 C 409.922 164, 415.157 167.816, 416.827 172.204 C 418.081 175.500, 418.034 176.266, 416.362 179.688 C 414.727 183.036, 412.827 184.376, 400.769 190.691 C 363.519 210.198, 334.256 235.689, 312.104 267.928 C 309.297 272.013, 307 275.670, 307 276.053 C 307 277.308, 321.320 286.658, 329.605 290.812 C 338.083 295.064, 349.335 298.963, 359.500 301.172 C 368.815 303.196, 402.515 302.943, 412.235 300.775 C 464.040 289.224, 493.296 249.798, 505.939 174.500 C 509.232 154.885, 511.039 133.118, 511.696 105.121 C 512.549 68.793, 513.046 69.595, 489.500 69.368 C 481.250 69.288, 468.200 69.577, 460.500 70.010" stroke="none" fill="#4bab53" fill-rule="evenodd"/></svg>